# xmcd
#
# Track frame offsets:
#	150
#	12225
#	23471
#	35598
#	49257
#	60423
#	74734
#	85907
#	99842
#	112272
#	123452
#	136561
#	146306
#	155417
#	169996
#	184014
#	196932
#	207495
#	220197
#	232641
#	243646
#	256257
#	267353
#	278404
#	290235
#	306266
#	321737
#	332331
#
# Disc length: 4598 seconds
#
# Revision: 1
# Processed by: cddbd v1.5.2PL0 Copyright (c) Steve Scherf et al.
# Submitted via: audiograbber 1.83.01
#
DISCID=9911f41c
DTITLE=Various Artist - Country Classic Tracks
DYEAR=1900
DGENRE=Classic Country
TTITLE0=Mel Tillis - She'll Be Hanging Round Somewhere
TTITLE1=Wynn Stewart - Another Day Another Dollar
TTITLE2=Gene Watson - It Don't Hurt Me Half as Bad
TTITLE3=Merle Haggard - Big City
TTITLE4=Webb Pierce - No Love Have I
TTITLE5=Johnny Cash - Orange Blossom Special
TTITLE6=Faron Young - Hello Walls
TTITLE7=Cowboy Copus - Filipino Baby
TTITLE8=Hackshaw Hawkins - Lomesome 7-7203
TTITLE9=Patsy Cline - Shoes
TTITLE10=Johnny Horton - North To Alaska
TTITLE11=Johnny and Jack - Stop The World and Let Me off
TTITLE12=Kitty Wells - I'll Repossess My Heart
TTITLE13=Carl Smith - If Teardrops Were Pennies
TTITLE14=Jean Shepherd - Poor Sweet Baby
TTITLE15=Barbara Mandrell - Watching My World Walk Away
TTITLE16=Bill Anderson - I Got The Fever
TTITLE17=Billy Walker - Funny How Time Slips Away
TTITLE18=Bobby Bare - %00 Miles Away Frm Home
TTITLE19=Buck Owens - Act Naturally
TTITLE20=Charlie Pride - Snakes Crawl At Night
TTITLE21=Charlie Louvin - See The Big Man Cry
TTITLE22=Charlie Rich - There Won't Be Anymore
TTITLE23=Charlie Walker - Who Will Buy The Wine
TTITLE24=George Jones - I Sleep Just Like A Baby
TTITLE25=Leona Williams - I Never Go Around Mirrors
TTITLE26=Connie Smith - Ain't Hafd No Loving
TTITLE27=Conway Twitty - She Needs Someone To Hold Her
EXTD=
EXTT0=
EXTT1=
EXTT2=
EXTT3=
EXTT4=
EXTT5=
EXTT6=
EXTT7=
EXTT8=
EXTT9=
EXTT10=
EXTT11=
EXTT12=
EXTT13=
EXTT14=
EXTT15=
EXTT16=
EXTT17=
EXTT18=
EXTT19=
EXTT20=
EXTT21=
EXTT22=
EXTT23=
EXTT24=
EXTT25=
EXTT26=
EXTT27=
PLAYORDER=
